<svg xmlns="http://www.w3.org/2000/svg" fill="none" viewBox="-0.855 -0.855 24 24" height="24" width="24" id="Controller-1--Streamline-Core.svg"><desc>Controller 1 Streamline Icon: https://streamlinehq.com</desc><g id="controller-1--remote-quadcopter-drones-flying-drone-control-controller-technology-fly"><path id="Vector 693" stroke="#ffffff" stroke-linecap="round" stroke-linejoin="round" d="M7.006049507142857 7.991426721428571v3.6792670071428573" stroke-width="2"></path><path id="Vector 694" stroke="#ffffff" stroke-linecap="round" stroke-linejoin="round" d="m8.845404385714284 9.831163714285715 -3.6792670071428573 0" stroke-width="1.71"></path><path id="Vector 2430" stroke="#ffffff" stroke-linecap="round" stroke-linejoin="round" d="M1.5336889242857141 7.927788771428572 0.8163075642857143 14.68200904285714c-0.22462110642857144 2.1147796714285714 1.4494231714285712 3.9567297428571426 3.596204914285714 3.9567297428571426 1.429537307142857 0 2.7249047357142855 -0.8342828571428571 3.304970142857143 -2.1285357857142855l0.6378920357142857 -1.4232005785714286h5.579250685714285l0.6378920357142857 1.4232005785714286c0.5800654071428571 1.2942529285714284 1.8754328357142855 2.1285357857142855 3.3050179071428567 2.1285357857142855 2.1466862142857144 0 3.820824428571428 -1.8419500714285715 3.5961730714285713 -3.9567297428571426l-0.7174195714285714 -6.75422027142857c-0.25824557142857146 -2.43105885 -2.327712857142857 -4.27667085 -4.795534285714286 -4.27667085H6.329181814285714c-2.4677895857142853 0 -4.537288714285714 1.845612 -4.795492889999999 4.27667085Z" stroke-width="1.71"></path><g id="Group 628"><path id="Vector" stroke="#ffffff" stroke-linecap="round" stroke-linejoin="round" d="M16.663844785714286 8.779839942857143c-0.21764592857142853 0 -0.3940553571428571 -0.1764890357142857 -0.3940553571428571 -0.3942145714285714 0 -0.21770961428571428 0.17640942857142855 -0.39419865 0.3940553571428571 -0.39419865" stroke-width="1.71"></path><path id="Vector_2" stroke="#ffffff" stroke-linecap="round" stroke-linejoin="round" d="M16.663844785714286 8.779839942857143c0.21764592857142853 0 0.3942145714285714 -0.1764890357142857 0.3942145714285714 -0.3942145714285714 0 -0.21770961428571428 -0.17656864285714285 -0.39419865 -0.3942145714285714 -0.39419865" stroke-width="1.71"></path></g><g id="Group 630"><path id="Vector_3" stroke="#ffffff" stroke-linecap="round" stroke-linejoin="round" d="M13.904693057142858 10.7509128c0 -0.21770961428571428 0.17650495714285713 -0.3942145714285714 0.3942145714285714 -0.3942145714285714 0.21770961428571428 0 0.3942145714285714 0.17650495714285713 0.3942145714285714 0.3942145714285714" stroke-width="1.71"></path><path id="Vector_4" stroke="#ffffff" stroke-linecap="round" stroke-linejoin="round" d="M13.904693057142858 10.750785428571428c0 0.2177255357142857 0.17650495714285713 0.3942145714285714 0.3942145714285714 0.3942145714285714 0.21770961428571428 0 0.3942145714285714 -0.1764890357142857 0.3942145714285714 -0.3942145714285714" stroke-width="1.71"></path></g></g></svg>